<mxfile host="app.diagrams.net" modified="2024-07-06T13:03:20.500Z" agent="Mozilla/5.0 (X11; Linux x86_64) AppleWebKit/537.36 (KHTML, like Gecko) Chrome/126.0.0.0 Safari/537.36" version="24.6.4" etag="3Y7yMuPvci5pl4Ys5dV9" type="github">
  <diagram name="Page-1" id="jEy8Ce-chUXv6_ysboco">
    <mxGraphModel>
      <root>
        <mxCell id="0" />
        <mxCell id="1" parent="0" />
      </root>
    </mxGraphModel>
  </diagram>
</mxfile>
